<?xml version="1.0" encoding="utf-8"?>
<!-- Generator: Adobe Illustrator 19.2.1, SVG Export Plug-In . SVG Version: 6.00 Build 0)  -->
<svg version="1.1" id="Layer_1" xmlns="http://www.w3.org/2000/svg" xmlns:xlink="http://www.w3.org/1999/xlink" x="0px" y="0px"
	 viewBox="0 0 200 200" style="enable-background:new 0 0 200 200;" xml:space="preserve">
<style type="text/css">
	.st0{fill:#FFFFFF;stroke:#424242;stroke-width:4;stroke-linecap:round;stroke-linejoin:round;stroke-miterlimit:10;}
	.st1{fill:none;stroke:#424242;stroke-width:4;stroke-linecap:round;stroke-linejoin:round;stroke-miterlimit:10;}
	.st2{fill:#FFFFFF;stroke:#5AAEDF;stroke-width:4;stroke-linecap:round;stroke-linejoin:round;stroke-miterlimit:10;}
</style>
<g>
	<path class="st0" d="M102.9,100.1c4.5,3.8,10.3,6,16.4,6c6.4,0,12.4-2.4,17-6.4V72.9L102.9,73V100.1z"/>
	<g>
		<g>
			<path class="st1" d="M95.7,90.9c4.2,9.2,13.5,15.2,23.5,15.2c10.2,0,19.4-6,23.7-15.4"/>
			<path class="st0" d="M118.6,151.1c0,0,37.3,1.1,51.3-7.1c23.1-13.5-0.4-41.1-18.6-45.7c-5.6,10.5-18.1,17.7-32.6,17.7h0.4
				c-14.6,0-26.9-7.3-32.6-17.7c-18.2,4.6-41.8,32.4-18.6,45.7c14,8.2,51.3,7.1,51.3,7.1"/>
			<circle class="st0" cx="119.2" cy="56.3" r="31.3"/>
			<path class="st0" d="M133.7,39.7c3.5,27.2,10.7,3.3,16,23.1c-3,14.1-15.5,24.8-30.6,24.8c-17.3,0-31.3-14-31.3-31.3
				c0-1.8,0.1-3.5,0.4-5.3C89.8,51.2,123.9,66.1,133.7,39.7L133.7,39.7z"/>
			<path class="st0" d="M136.2,83.8v14.4 M102.9,98.3v-14"/>
		</g>
	</g>
</g>
<g>
	<path class="st2" d="M70.7,124.1c4.5,3.8,10.3,6,16.4,6c6.4,0,12.4-2.4,17-6.4V96.9L70.7,97V124.1z"/>
	<path class="st2" d="M63.6,114.9c4.2,9.2,13.4,15.2,23.5,15.2s19.1-5.8,23.4-14.9"/>
	<path class="st2" d="M87.3,175c0,0,37.2,1.1,51.2-7.1c23.1-13.4-0.4-41-18.6-45.6c-5.6,10.5-18.1,17.7-32.6,17.7h0.4
		c-14.5,0-26.9-7.3-32.6-17.7c-18.2,4.6-41.7,32.3-18.6,45.6c14,8.1,51.2,7.1,51.2,7.1"/>
	<circle class="st2" cx="87.1" cy="80.3" r="31.2"/>
	<path class="st2" d="M104.1,107.5v14.7 M70.7,124.2v-16.3"/>
</g>
<path class="st2" d="M55.9,81.9c0,0,1.7,13.6,7.9,18.8c-4.9,2.3-15.8-1.2-14.3-2.3C55.8,94.2,55.9,81.9,55.9,81.9z M118.4,80.4
	c0,0-1.7,14.9-7.9,20.2c4.9,2.3,15.8-1.2,14.3-2.3C118.7,94.1,118.4,80.4,118.4,80.4z"/>
<path class="st2" d="M100.9,52.3C91.8,75.7,74.5,53,56.6,86.9c3,14.1,15.5,24.7,30.6,24.7c17.3,0,31.2-14,31.2-31.2
	C118.4,78.5,103.3,72.3,100.9,52.3z"/>
<path class="st2" d="M118.4,80.4c0-1.9-15.1-8.1-17.5-28.1"/>
<path class="st2" d="M100.9,52.3C91.8,75.7,74.5,53,56.6,86.9"/>
</svg>
