<?xml version="1.0" encoding="utf-8"?>
<!-- Generator: Adobe Illustrator 19.2.1, SVG Export Plug-In . SVG Version: 6.00 Build 0)  -->
<svg version="1.1" id="Layer_1" xmlns="http://www.w3.org/2000/svg" xmlns:xlink="http://www.w3.org/1999/xlink" x="0px" y="0px"
	 viewBox="0 0 200 200" style="enable-background:new 0 0 200 200;" xml:space="preserve">
<style type="text/css">
	.st0{fill:none;stroke:#5AAEDF;stroke-width:4;stroke-linecap:round;stroke-linejoin:round;stroke-miterlimit:10;}
	.st1{fill:#FFFFFF;stroke:#424242;stroke-width:4;stroke-linecap:round;stroke-linejoin:round;stroke-miterlimit:10;}
	.st2{fill:none;stroke:#424242;stroke-width:4;stroke-linecap:round;stroke-linejoin:round;stroke-miterlimit:10;}
	.st3{fill:#FFFFFF;stroke:#6F8EC8;stroke-width:4;stroke-miterlimit:10;}
	.st4{fill:none;stroke:#5BABDC;stroke-width:4;stroke-linecap:round;stroke-linejoin:round;stroke-miterlimit:10;}
	.st5{fill:#FFFFFF;stroke:#5BABDC;stroke-width:4;stroke-linecap:round;stroke-linejoin:round;stroke-miterlimit:10;}
	.st6{fill:none;stroke:#5BABDC;stroke-width:4;stroke-linecap:round;stroke-linejoin:round;}
	.st7{fill:none;stroke:#5BABDC;stroke-width:4;stroke-linecap:round;stroke-linejoin:round;stroke-dasharray:0,7.7743;}
	.st8{fill:#FFFFFF;stroke:#5AAEDF;stroke-width:4;stroke-linecap:round;stroke-linejoin:round;stroke-miterlimit:10;}
</style>
<g>
	<path id="repo1_23_" class="st1" d="M55.2,134.5c0-10,22.7-18,50.8-18s50.8,8.1,50.8,18 M55.2,134.5V157c0,2.4,1.4,4.8,3.8,6.8
		c7.6,6.6,25.8,11.2,47,11.2c21.3,0,39.4-4.7,47-11.2c2.4-2.1,3.8-4.4,3.8-6.8v-22.5"/>
	<path class="st3" d="M156.7,134.5c0,10-22.7,18-50.8,18s-50.8-8.1-50.8-18c0-10,22.7-18,50.8-18S156.7,124.5,156.7,134.5z"/>
	<path id="repo1_22_" class="st1" d="M55.2,112c0-10,22.7-18,50.8-18s50.8,8.1,50.8,18 M55.2,112v22.5c0,2.4,1.4,4.8,3.8,6.8
		c7.6,6.6,25.8,11.2,47,11.2c21.3,0,39.4-4.7,47-11.2c2.4-2.1,3.8-4.4,3.8-6.8V112"/>
	<path class="st3" d="M156.7,112c0,10-22.7,18-50.8,18s-50.8-8.1-50.8-18s22.7-18,50.8-18S156.7,102,156.7,112z"/>
	<path id="repo1_21_" class="st1" d="M55.2,89.5c0-10,22.7-18,50.8-18s50.8,8.1,50.8,18 M55.2,89.5V112c0,2.4,1.4,4.8,3.8,6.8
		c7.6,6.6,25.8,11.2,47,11.2c21.3,0,39.4-4.7,47-11.2c2.4-2.1,3.8-4.4,3.8-6.8V89.5"/>
	<path class="st2" d="M156.7,89.5c0,10-22.7,18-50.8,18s-50.8-8.1-50.8-18s22.7-18,50.8-18S156.7,79.5,156.7,89.5z"/>
	<line class="st4" x1="55.2" y1="25" x2="55.2" y2="48.7"/>
	<line class="st4" x1="67" y1="36.8" x2="43.3" y2="36.8"/>
	<path id="repo1_20_" class="st1" d="M55.2,67c0-10,22.7-18,50.8-18s50.8,8.1,50.8,18 M55.2,67v22.5c0,2.4,1.4,4.8,3.8,6.8
		c7.6,6.6,25.8,11.2,47,11.2c21.3,0,39.4-4.7,47-11.2c2.4-2.1,3.8-4.4,3.8-6.8V67"/>
	<path class="st5" d="M156.7,67c0,10-22.7,18-50.8,18s-50.8-8.1-50.8-18s22.7-18,50.8-18S156.7,57.1,156.7,67z"/>
</g>
</svg>
