<?xml version="1.0" encoding="utf-8"?>
<!-- Generator: Adobe Illustrator 19.2.1, SVG Export Plug-In . SVG Version: 6.00 Build 0)  -->
<svg version="1.1" id="Layer_1" xmlns="http://www.w3.org/2000/svg" xmlns:xlink="http://www.w3.org/1999/xlink" x="0px" y="0px"
	 viewBox="0 0 200 200" style="enable-background:new 0 0 200 200;" xml:space="preserve">
<style type="text/css">
	.st0{fill:none;stroke:#5AAEDF;stroke-width:4;stroke-linecap:round;stroke-linejoin:round;stroke-miterlimit:10;}
	.st1{fill:#FFFFFF;stroke:#424242;stroke-width:4;stroke-linecap:round;stroke-linejoin:round;stroke-miterlimit:10;}
	.st2{fill:none;stroke:#424242;stroke-width:4;stroke-linecap:round;stroke-linejoin:round;stroke-miterlimit:10;}
	.st3{fill:#FFFFFF;stroke:#6F8EC8;stroke-width:4;stroke-miterlimit:10;}
	.st4{fill:none;stroke:#5BABDC;stroke-width:4;stroke-linecap:round;stroke-linejoin:round;stroke-miterlimit:10;}
	.st5{fill:#FFFFFF;stroke:#5BABDC;stroke-width:4;stroke-linecap:round;stroke-linejoin:round;stroke-miterlimit:10;}
	.st6{fill:none;stroke:#5BABDC;stroke-width:4;stroke-linecap:round;stroke-linejoin:round;}
	.st7{fill:none;stroke:#5BABDC;stroke-width:4;stroke-linecap:round;stroke-linejoin:round;stroke-dasharray:0,7.7743;}
	.st8{fill:#FFFFFF;stroke:#5AAEDF;stroke-width:4;stroke-linecap:round;stroke-linejoin:round;stroke-miterlimit:10;}
</style>
<g>
	<g>
		<path class="st4" d="M74.6,27.5c-12,5-20.4,16.7-20.4,30.5c0,12.3,6.7,23,16.7,28.7"/>
		<path class="st4" d="M110.2,58c0-12.7-10.3-23-23-23s-23,10.3-23,23c0,6.4,2.6,12.1,6.7,16.3"/>
		<circle class="st4" cx="87.2" cy="58" r="13"/>
	</g>
	<g>
		<path class="st1" d="M83.2,157c4.2,5.1,11.2,18,31,18s36-16.1,36-36v-27c0-5-4-9-9-9s-9,4-9,9v-4.5c0-5-4-9-9-9s-9,4-9,9V103
			c0-5-4-9-9-9s-9,4-9,9V58c0-5-4-9-9-9s-9,4-9,9v65.1l-6.6-7.9c-3.2-3.8-8.9-4.3-12.7-1.1c-3.8,3.2-4.3,8.9-1.1,12.7L83.2,157z"/>
		<line class="st2" x1="96.2" y1="103" x2="96.2" y2="112"/>
		<line class="st2" x1="114.2" y1="107.5" x2="114.2" y2="112"/>
		<line class="st2" x1="132.2" y1="112" x2="132.2" y2="116.5"/>
	</g>
	<g>
		<g>
			<line class="st6" x1="110.5" y1="34.7" x2="110.5" y2="34.7"/>
			<path class="st7" d="M104.4,29.9c-5-3.1-10.9-4.9-17.2-4.9c-3.1,0-6.1,0.4-9,1.2"/>
			<line class="st6" x1="74.6" y1="27.5" x2="74.6" y2="27.5"/>
		</g>
	</g>
</g>
</svg>
