<?xml version="1.0" encoding="utf-8"?>
<!-- Generator: Adobe Illustrator 19.2.1, SVG Export Plug-In . SVG Version: 6.00 Build 0)  -->
<svg version="1.1" id="Layer_1" xmlns="http://www.w3.org/2000/svg" xmlns:xlink="http://www.w3.org/1999/xlink" x="0px" y="0px"
	 viewBox="0 0 200 200" style="enable-background:new 0 0 200 200;" xml:space="preserve">
<style type="text/css">
	.st0{fill:none;stroke:#5AAEDF;stroke-width:4;stroke-linecap:round;stroke-linejoin:round;stroke-miterlimit:10;}
	.st1{fill:#FFFFFF;stroke:#424242;stroke-width:4;stroke-linecap:round;stroke-linejoin:round;stroke-miterlimit:10;}
	.st2{fill:none;stroke:#424242;stroke-width:4;stroke-linecap:round;stroke-linejoin:round;stroke-miterlimit:10;}
	.st3{fill:#FFFFFF;stroke:#6F8EC8;stroke-width:4;stroke-miterlimit:10;}
	.st4{fill:none;stroke:#5BABDC;stroke-width:4;stroke-linecap:round;stroke-linejoin:round;stroke-miterlimit:10;}
	.st5{fill:#FFFFFF;stroke:#5BABDC;stroke-width:4;stroke-linecap:round;stroke-linejoin:round;stroke-miterlimit:10;}
	.st6{fill:none;stroke:#5BABDC;stroke-width:4;stroke-linecap:round;stroke-linejoin:round;}
	.st7{fill:none;stroke:#5BABDC;stroke-width:4;stroke-linecap:round;stroke-linejoin:round;stroke-dasharray:0,7.7743;}
	.st8{fill:#FFFFFF;stroke:#5AAEDF;stroke-width:4;stroke-linecap:round;stroke-linejoin:round;stroke-miterlimit:10;}
</style>
<g>
	<g>
		<path id="repo1_8_" class="st1" d="M49.3,134.5c0-10,22.7-18,50.8-18s50.8,8.1,50.8,18 M49.3,134.5V157c0,2.4,1.4,4.8,3.8,6.8
			c7.6,6.6,25.8,11.2,47,11.2c21.3,0,39.4-4.7,47-11.2c2.4-2.1,3.8-4.4,3.8-6.8v-22.5"/>
		<path class="st1" d="M150.8,134.5c0,10-22.7,18-50.8,18s-50.8-8.1-50.8-18s22.7-18,50.8-18S150.8,124.5,150.8,134.5z"/>
		<path id="repo1_7_" class="st1" d="M49.3,112c0-10,22.7-18,50.8-18s50.8,8.1,50.8,18 M49.3,112v22.5c0,2.4,1.4,4.8,3.8,6.8
			c7.6,6.6,25.8,11.2,47,11.2c21.3,0,39.4-4.7,47-11.2c2.4-2.1,3.8-4.4,3.8-6.8V112"/>
		<path class="st1" d="M150.8,112c0,10-22.7,18-50.8,18s-50.8-8.1-50.8-18s22.7-18,50.8-18S150.8,102,150.8,112z"/>
		<path id="repo1_6_" class="st1" d="M49.3,89.5c0-10,22.7-18,50.8-18s50.8,8.1,50.8,18 M49.3,89.5V112c0,2.4,1.4,4.8,3.8,6.8
			c7.6,6.6,25.8,11.2,47,11.2c21.3,0,39.4-4.7,47-11.2c2.4-2.1,3.8-4.4,3.8-6.8V89.5"/>
		<path class="st1" d="M150.8,89.5c0,10-22.7,18-50.8,18s-50.8-8.1-50.8-18s22.7-18,50.8-18S150.8,79.5,150.8,89.5z"/>
		<path id="repo1_5_" class="st1" d="M49.3,67c0-10,22.7-18,50.8-18s50.8,8.1,50.8,18 M49.3,67v22.5c0,2.4,1.4,4.8,3.8,6.8
			c7.6,6.6,25.8,11.2,47,11.2c21.3,0,39.4-4.7,47-11.2c2.4-2.1,3.8-4.4,3.8-6.8V67"/>
		<path class="st1" d="M150.8,67c0,10-22.7,18-50.8,18s-50.7-8-50.7-18S72,49,100.1,49S150.8,57.1,150.8,67z"/>
	</g>
	<path class="st0" d="M150.9,157v-22.5"/>
	<path class="st0" d="M147.1,163.8c2.4-2.1,3.8-4.4,3.8-6.8"/>
	<path class="st0" d="M100.1,175c21.3,0,39.4-4.7,47-11.2"/>
	<path class="st0" d="M150.9,134.5V112"/>
	<path class="st0" d="M147.1,141.3c2.4-2.1,3.8-4.4,3.8-6.8"/>
	<path class="st0" d="M100.1,152.5c21.3,0,39.4-4.7,47-11.2"/>
	<path class="st0" d="M150.9,112V89.5"/>
	<path class="st0" d="M147.1,118.8c2.4-2.1,3.8-4.4,3.8-6.8"/>
	<path class="st0" d="M100.1,130c21.3,0,39.4-4.7,47-11.2"/>
	<path class="st0" d="M150.9,89.5V67"/>
	<path class="st0" d="M147.1,96.3c2.4-2.1,3.8-4.4,3.8-6.8"/>
	<path class="st0" d="M100.1,107.5c21.3,0,39.4-4.7,47-11.2"/>
	<path class="st0" d="M100.1,49c28.1,0,50.7,8.1,50.7,18"/>
	<path class="st0" d="M150.8,67c0,10-22.7,18-50.8,18"/>
</g>
<g>
	<path class="st0" d="M175.8,36.8h-37.7"/>
	<path class="st0" d="M165.3,25l11.8,11.8l-11.8,11.8"/>
</g>
</svg>
