<?xml version="1.0" encoding="utf-8"?>
<!-- Generator: Adobe Illustrator 19.2.1, SVG Export Plug-In . SVG Version: 6.00 Build 0)  -->
<svg version="1.1" id="Layer_1" xmlns="http://www.w3.org/2000/svg" xmlns:xlink="http://www.w3.org/1999/xlink" x="0px" y="0px"
	 viewBox="0 0 200 200" style="enable-background:new 0 0 200 200;" xml:space="preserve">
<style type="text/css">
	.st0{fill:none;stroke:#5AAEDF;stroke-width:4;stroke-linecap:round;stroke-linejoin:round;stroke-dasharray:19.8161,19.4554;}
	.st1{fill:#FFFFFF;stroke:#424242;stroke-width:4;stroke-linecap:round;stroke-linejoin:round;stroke-miterlimit:10;}
	.st2{fill:none;stroke:#424242;stroke-width:4;stroke-linecap:round;stroke-linejoin:round;stroke-miterlimit:10;}
</style>
<g>
	<g>
		<circle class="st0" cx="99.5" cy="94.3" r="75"/>
	</g>
</g>
<g>
	<path class="st1" d="M83.9,118.6c4.5,3.8,10.3,6,16.4,6c6.4,0,12.4-2.4,17-6.4V91.4l-33.4,0.1V118.6z"/>
	<g>
		<g>
			<path class="st2" d="M76.7,109.4c4.2,9.2,13.5,15.2,23.5,15.2c10.2,0,19.4-6,23.7-15.4"/>
			<path class="st1" d="M99.6,169.6c0,0,37.3,1.1,51.3-7.1c23.1-13.5-0.4-41.1-18.6-45.7c-5.6,10.5-18.1,17.7-32.6,17.7h0.4
				c-14.6,0-26.9-7.3-32.6-17.7c-18.2,4.6-41.8,32.4-18.6,45.7c14,8.2,51.3,7.1,51.3,7.1"/>
			<circle class="st1" cx="100.2" cy="74.8" r="31.3"/>
			<path class="st1" d="M114.7,58.2c3.5,27.2,10.7,3.3,16,23.1c-3,14.1-15.5,24.8-30.6,24.8c-17.3,0-31.3-14-31.3-31.3
				c0-1.8,0.1-3.5,0.4-5.3C70.8,69.7,104.9,84.6,114.7,58.2L114.7,58.2z"/>
			<path class="st1" d="M117.2,102.3v14.4 M83.9,116.8v-14"/>
		</g>
	</g>
</g>
</svg>
